<svg version="1.1" id="Layer_1" xmlns="http://www.w3.org/2000/svg" xmlns:xlink="http://www.w3.org/1999/xlink" x="0px" y="0px"
	 width="100%" viewBox="0 0 1048 262" enable-background="new 0 0 1048 262" xml:space="preserve">

<path fill="#2D2728" opacity="1.000000" stroke="none" 
	d="
M168.646973,54.443520 
	C191.503159,68.463600 204.808731,88.506737 209.032227,114.554909 
	C211.968292,132.662857 209.683014,150.219589 200.960648,166.331985 
	C185.274338,195.308548 161.127762,211.503494 127.670937,213.228088 
	C84.402809,215.458420 44.375526,183.266556 39.245125,137.796997 
	C33.789898,89.448608 67.544395,49.343071 111.922272,42.936039 
	C132.033783,40.032455 150.901184,43.644123 168.646973,54.443520 
M198.925568,115.103287 
	C195.738907,97.501068 187.556091,82.744095 174.049942,70.919250 
	C136.953384,38.440628 78.960625,49.728737 56.908928,93.792877 
	C41.011139,125.560158 48.821129,165.607971 78.925842,187.858948 
	C102.684959,205.419769 128.743652,208.422226 155.384659,196.538437 
	C187.549484,182.190643 203.762619,150.836151 198.925568,115.103287 
z"/>
<path fill="#060606" opacity="1.000000" stroke="none" 
	d="
M334.525513,137.371796 
	C336.884491,118.624481 339.150879,100.316093 341.447815,81.761017 
	C346.166901,81.761017 350.583618,81.761017 355.639252,81.761017 
	C350.405731,115.427101 345.202789,148.896393 339.964508,182.593109 
	C334.713776,182.593109 329.624908,182.593109 324.182312,182.593109 
	C319.439819,164.483505 314.699890,146.383652 309.759033,127.516541 
	C304.743805,146.446823 299.934662,164.599060 295.147278,182.669250 
	C289.698853,182.669250 284.735596,182.669250 279.341980,182.669250 
	C274.098450,149.102905 268.872375,115.648232 263.583557,81.791817 
	C268.561005,81.791817 272.961792,81.791817 277.875214,81.791817 
	C281.479828,110.312981 285.084473,138.834274 288.676300,167.254028 
	C293.389313,149.331055 298.175293,131.130692 302.864380,113.298698 
	C303.634369,113.013474 303.788452,112.911804 303.947205,112.903931 
	C316.075500,112.301933 316.127380,112.288513 319.266876,123.919281 
	C323.115326,138.176361 326.865906,152.459854 331.252350,166.825577 
	C332.312561,157.153946 333.372772,147.482330 334.525513,137.371796 
z"/>
<path fill="#050505" opacity="1.000000" stroke="none" 
	d="
M496.742645,81.475372 
	C501.464905,80.583939 503.104156,82.788193 504.494598,86.596756 
	C515.642944,117.133736 527.020813,147.586914 538.328613,178.065689 
	C538.840515,179.445511 539.353882,180.824783 540.105835,182.847946 
	C536.087769,182.847946 532.514343,182.676300 528.966736,182.904785 
	C526.349548,183.073364 525.164429,182.105057 524.334717,179.654160 
	C521.782227,172.114304 519.101624,164.610107 516.152100,157.219238 
	C515.604126,155.846069 513.590820,154.172211 512.226685,154.147797 
	C499.249298,153.915451 486.266083,154.009186 472.999725,154.009186 
	C469.551025,163.575790 466.126678,173.074860 462.662354,182.684799 
	C457.919617,182.684799 453.276733,182.684799 448.042114,182.684799 
	C450.864136,175.128967 453.593201,167.739182 456.381409,160.371780 
	C465.538727,136.174957 474.874237,112.043510 483.754181,87.745468 
	C485.505066,82.954521 487.518402,80.384712 492.798859,81.442635 
	C493.919403,81.667130 495.123383,81.475342 496.742645,81.475372 
M494.499664,142.834793 
	C499.939819,142.834793 505.379944,142.834793 511.492126,142.834793 
	C505.707489,126.006386 500.130432,109.781807 494.309082,92.846565 
	C488.387238,109.839821 482.694672,126.175140 476.889099,142.834793 
	C482.844391,142.834793 488.173065,142.834793 494.499664,142.834793 
z"/>
<path fill="#060606" opacity="1.000000" stroke="none" 
	d="
M689.731628,172.111969 
	C693.846130,168.929352 697.584717,165.870514 702.221008,162.077209 
	C704.395142,162.702682 708.027588,163.747681 713.315674,165.268997 
	C709.603455,169.709808 706.989014,174.197800 703.180786,177.141541 
	C691.126343,186.459518 665.494141,187.899658 653.896729,174.822189 
	C649.753601,170.150345 646.521240,164.103058 644.633667,158.127472 
	C641.553833,148.377350 641.744263,138.146133 643.840881,128.040863 
	C647.751465,109.192955 661.009827,99.108032 680.379150,100.053734 
	C702.562073,101.136810 711.636536,114.102791 713.945129,134.197800 
	C714.336609,137.605591 714.000488,141.097000 714.000488,144.997986 
	C695.024048,144.997986 675.954956,144.997986 656.896545,144.997986 
	C656.691650,167.554794 669.632141,178.234924 689.731628,172.111969 
M697.304565,121.434296 
	C691.897400,111.293480 681.889954,107.546844 670.746826,111.491501 
	C661.737549,114.680786 655.733826,125.111153 657.558411,134.085968 
	C671.776306,134.085968 685.944153,134.085968 700.795349,134.085968 
	C699.674072,129.731430 698.691040,125.913925 697.304565,121.434296 
z"/>
<path fill="#060606" opacity="1.000000" stroke="none" 
	d="
M406.419037,173.766998 
	C413.766510,172.698044 419.458649,169.824219 423.034760,163.431030 
	C423.470276,162.652435 425.213593,162.006378 426.146088,162.214828 
	C429.188538,162.894897 432.136169,163.999161 436.484253,165.370361 
	C433.070648,169.612808 430.685577,173.911041 427.133667,176.748901 
	C414.982666,186.457306 388.780792,188.027679 377.051422,174.638046 
	C373.227142,170.272430 370.021851,164.832428 368.234314,159.331146 
	C365.015778,149.425934 365.042114,139.032104 366.994202,128.741318 
	C370.638947,109.527512 384.400208,98.891243 404.004120,100.097725 
	C423.447968,101.294357 434.076904,111.362129 436.952850,131.505661 
	C437.559509,135.754745 437.687775,140.072128 438.073700,144.816010 
	C418.644043,144.816010 399.585114,144.816010 380.576080,144.816010 
	C378.838898,161.030823 388.516998,175.974106 406.419037,173.766998 
M385.630554,134.482300 
	C398.308777,134.482300 410.987000,134.482300 423.760620,134.482300 
	C421.480133,117.044693 414.126587,109.384018 401.070190,110.078453 
	C388.408997,110.751884 380.565704,119.764023 380.370789,134.222061 
	C381.790405,134.307999 383.230164,134.395172 385.630554,134.482300 
z"/>
<path fill="#060606" opacity="1.000000" stroke="none" 
	d="
M753.504395,165.997559 
	C753.504211,171.792725 753.504211,177.088516 753.504211,182.614258 
	C748.595581,182.614258 744.174438,182.614258 739.416443,182.614258 
	C739.416443,149.026306 739.416443,115.502029 739.416443,81.723625 
	C761.569702,81.723625 783.641724,81.723625 805.812378,81.723625 
	C805.812378,85.572769 805.812378,89.174660 805.812378,93.241348 
	C788.386230,93.241348 771.155457,93.241348 753.716675,93.241348 
	C753.716675,105.657890 753.716675,117.608574 753.716675,129.986115 
	C770.292297,129.986115 786.873962,129.986115 803.808105,129.986115 
	C803.808105,134.105911 803.808105,137.815811 803.808105,141.910858 
	C787.272766,141.910858 770.684265,141.910858 753.504517,141.910858 
	C753.504517,150.014328 753.504517,157.756256 753.504395,165.997559 
z"/>
<path fill="#060606" opacity="1.000000" stroke="none" 
	d="
M949.345825,152.985931 
	C949.346252,155.149353 949.336792,156.815948 949.348389,158.482391 
	C949.423401,169.251297 953.466309,173.232849 964.417053,172.689987 
	C971.180176,172.354721 977.914124,171.428925 984.860229,170.748749 
	C984.860229,173.911972 984.860229,177.178604 984.860229,180.612259 
	C973.922729,182.960052 963.147522,184.865829 952.119385,182.996567 
	C941.726318,181.234955 936.245605,175.129547 936.076416,164.570862 
	C935.828125,149.076218 935.963196,133.575439 935.935852,118.077271 
	C935.932678,116.279663 935.935364,114.482040 935.935364,112.266838 
	C931.614502,112.266838 927.685303,112.266838 923.482849,112.266838 
	C923.482849,108.587410 923.482849,105.336571 923.482849,101.685585 
	C927.465027,101.685585 931.408569,101.685585 935.861267,101.685585 
	C937.405029,94.498283 938.892395,87.573532 940.430847,80.410904 
	C943.257751,80.410904 946.039185,80.410904 949.236572,80.410904 
	C949.236572,87.193489 949.236572,93.973679 949.236572,101.319023 
	C960.205627,101.319023 970.785400,101.319023 981.628052,101.319023 
	C981.628052,105.118134 981.628052,108.351822 981.628052,112.110481 
	C971.013794,112.110481 960.436707,112.110481 949.345642,112.110481 
	C949.345642,125.910858 949.345642,139.199936 949.345825,152.985931 
z"/>
<path fill="#090909" opacity="1.000000" stroke="none" 
	d="
M888.983154,182.857986 
	C868.366516,182.857986 848.246399,182.857986 827.849609,182.857986 
	C827.849609,179.115936 827.849609,175.698135 827.849609,172.054443 
	C838.164673,172.054443 848.289978,172.054443 858.764160,172.054443 
	C858.764160,152.143295 858.764160,132.449768 858.764160,112.232651 
	C851.075623,112.232651 843.345398,112.232651 835.395874,112.232651 
	C835.395874,108.473343 835.395874,105.234421 835.395874,101.727539 
	C847.840393,101.727539 860.081665,101.727539 872.615601,101.727539 
	C872.615601,125.052444 872.615601,148.141327 872.615601,171.711472 
	C882.097778,171.711472 891.312378,171.711472 900.845337,171.711472 
	C900.845337,175.556992 900.845337,178.935135 900.845337,182.857986 
	C897.038696,182.857986 893.259155,182.857986 888.983154,182.857986 
z"/>
<path fill="#080808" opacity="1.000000" stroke="none" 
	d="
M561.398071,118.877365 
	C560.489685,113.033127 559.655273,107.632767 558.704285,101.477524 
	C562.389526,101.477524 565.974609,101.263840 569.501404,101.622917 
	C570.420227,101.716461 571.604797,103.485107 571.899048,104.674469 
	C573.077209,109.436264 573.953064,114.272842 575.018127,119.458336 
	C585.068115,98.574059 599.341919,98.076614 618.676636,101.595451 
	C618.676636,104.313065 618.703186,107.117332 618.663635,109.920670 
	C618.647766,111.049095 618.487000,112.175476 618.376160,113.493813 
	C614.347656,113.093201 610.581543,112.562294 606.798218,112.369202 
	C589.388306,111.480667 576.777283,122.766251 576.102783,140.335251 
	C575.636658,152.477142 575.907898,164.647385 575.852356,176.804947 
	C575.844116,178.608322 575.851257,180.411774 575.851257,182.534271 
	C571.264648,182.534271 567.028137,182.534271 562.122864,182.534271 
	C562.122864,180.777374 562.126160,179.014404 562.122314,177.251419 
	C562.084900,160.096481 562.064697,142.941452 561.985107,125.786713 
	C561.975098,123.630806 561.650818,121.476372 561.398071,118.877365 
z"/>
<path fill="#111111" opacity="1.000000" stroke="none" 
	d="
M862.336548,71.416153 
	C865.925293,71.416168 869.063232,71.416168 872.519897,71.416168 
	C872.519897,76.231789 872.519897,80.646385 872.519897,85.472061 
	C867.919739,85.472061 863.182373,85.472061 858.093994,85.472061 
	C858.093994,81.128525 858.093994,76.576149 858.093994,71.635506 
	C859.345642,71.563095 860.615723,71.489616 862.336548,71.416153 
z"/>
<path fill="#FEFEFE" opacity="1.000000" stroke="none" 
	d="
M198.985779,115.546043 
	C203.762619,150.836151 187.549484,182.190643 155.384659,196.538437 
	C128.743652,208.422226 102.684959,205.419769 78.925842,187.858948 
	C48.821129,165.607971 41.011139,125.560158 56.908928,93.792877 
	C78.960625,49.728737 136.953384,38.440628 174.049942,70.919250 
	C187.556091,82.744095 195.738907,97.501068 198.985779,115.546043 
M129.532104,97.527908 
	C129.800293,93.738556 130.068481,89.949196 130.338852,86.129021 
	C114.956642,94.115723 109.384048,107.023628 112.596603,124.971161 
	C106.836113,120.661087 106.970352,115.370247 106.894157,109.826126 
	C97.040527,121.220200 97.373604,135.855148 107.250877,145.977722 
	C109.338875,148.117569 111.353745,150.329956 113.472397,152.438492 
	C118.500870,157.442963 121.320396,163.391296 121.259483,172.213654 
	C127.302620,167.582672 132.904984,164.070724 137.557617,159.575760 
	C150.858780,146.725357 155.856628,121.960899 136.954453,107.060669 
	C134.058136,104.777557 132.157547,101.231262 129.532104,97.527908 
z"/>
<path fill="#F9F9F9" opacity="1.000000" stroke="none" 
	d="
M494.000671,142.834793 
	C488.173065,142.834793 482.844391,142.834793 476.889099,142.834793 
	C482.694672,126.175140 488.387238,109.839821 494.309082,92.846565 
	C500.130432,109.781807 505.707489,126.006386 511.492126,142.834793 
	C505.379944,142.834793 499.939819,142.834793 494.000671,142.834793 
z"/>
<path fill="#FCFCFC" opacity="1.000000" stroke="none" 
	d="
M697.506287,121.765350 
	C698.691040,125.913925 699.674072,129.731430 700.795349,134.085968 
	C685.944153,134.085968 671.776306,134.085968 657.558411,134.085968 
	C655.733826,125.111153 661.737549,114.680786 670.746826,111.491501 
	C681.889954,107.546844 691.897400,111.293480 697.506287,121.765350 
z"/>
<path fill="#FCFCFC" opacity="1.000000" stroke="none" 
	d="
M385.150269,134.482315 
	C383.230164,134.395172 381.790405,134.307999 380.370789,134.222061 
	C380.565704,119.764023 388.408997,110.751884 401.070190,110.078453 
	C414.126587,109.384018 421.480133,117.044693 423.760620,134.482300 
	C410.987000,134.482300 398.308777,134.482300 385.150269,134.482315 
z"/>
<path fill="#292324" opacity="1.000000" stroke="none" 
	d="
M129.664276,97.898544 
	C132.157547,101.231262 134.058136,104.777557 136.954453,107.060669 
	C155.856628,121.960899 150.858780,146.725357 137.557617,159.575760 
	C132.904984,164.070724 127.302620,167.582672 121.259483,172.213654 
	C121.320396,163.391296 118.500870,157.442963 113.472397,152.438492 
	C111.353745,150.329956 109.338875,148.117569 107.250877,145.977722 
	C97.373604,135.855148 97.040527,121.220200 106.894157,109.826126 
	C106.970352,115.370247 106.836113,120.661087 112.596603,124.971161 
	C109.384048,107.023628 114.956642,94.115723 130.338852,86.129021 
	C130.068481,89.949196 129.800293,93.738556 129.664276,97.898544 
z"/>
</svg>